<svg width="189" height="54" viewBox="0 0 189 54" fill="none" xmlns="http://www.w3.org/2000/svg">
<g filter="url(#filter0_d)">
<path d="M22.3828 2.21094C22.9453 2.21094 23.5703 2.25781 24.2578 2.35156C24.9609 2.44531 25.6484 2.60156 26.3203 2.82031C27.0078 3.03906 27.6406 3.32813 28.2188 3.6875C28.7969 4.03125 29.2422 4.46875 29.5547 5C29.9453 5.28125 30.2969 5.69531 30.6094 6.24219C30.8906 6.83594 31.0312 7.39844 31.0312 7.92969C31.0312 8.52344 30.9219 9.07031 30.7031 9.57031C30.5 10.0703 30.2344 10.5234 29.9062 10.9297C29.5781 11.3359 29.2188 11.6953 28.8281 12.0078C28.4531 12.3203 28.0859 12.5859 27.7266 12.8047C27.3672 13.0078 27.0547 13.1641 26.7891 13.2734C26.5234 13.3828 26.3516 13.4375 26.2734 13.4375C26.1953 13.4375 26.0625 13.3984 25.875 13.3203C25.7031 13.2422 25.5312 13.1484 25.3594 13.0391C25.1562 12.9297 24.9375 12.7969 24.7031 12.6406C24.7031 12.625 24.8516 12.5312 25.1484 12.3594C25.4453 12.1875 25.7734 11.9219 26.1328 11.5625C26.5078 11.2031 26.8438 10.7344 27.1406 10.1562C27.4375 9.5625 27.5859 8.83594 27.5859 7.97656C27.4453 7.69531 27.25 7.42969 27 7.17969C26.75 6.91406 26.4297 6.6875 26.0391 6.5C25.6484 6.29688 25.1719 6.13281 24.6094 6.00781C24.0625 5.88281 23.4062 5.82031 22.6406 5.82031C22.375 5.82031 21.9688 5.85938 21.4219 5.9375C20.875 6.01562 20.2422 6.15625 19.5234 6.35938C18.8047 6.5625 18.0234 6.84375 17.1797 7.20312C16.3516 7.54688 15.5156 8.00781 14.6719 8.58594C13.8438 9.14844 13.0391 9.83594 12.2578 10.6484C11.4922 11.4453 10.8125 12.3906 10.2188 13.4844C9.625 14.5625 9.14844 15.8047 8.78906 17.2109C8.44531 18.6172 8.27344 20.2109 8.27344 21.9922C8.27344 22.9609 8.35156 23.8438 8.50781 24.6406C8.66406 25.4219 8.86719 26.1328 9.11719 26.7734C9.38281 27.3984 9.6875 27.9609 10.0312 28.4609C10.375 28.9453 10.7344 29.3828 11.1094 29.7734C11.3438 29.8984 11.6094 30.0625 11.9062 30.2656C12.2031 30.4531 12.6016 30.6406 13.1016 30.8281C13.6172 31 14.2734 31.1562 15.0703 31.2969C15.8672 31.4219 16.8828 31.4844 18.1172 31.4844C19.1797 31.4844 20.1875 31.3594 21.1406 31.1094C22.1094 30.8594 23.0078 30.5391 23.8359 30.1484C24.6797 29.7578 25.4531 29.3281 26.1562 28.8594C26.8594 28.375 27.4766 27.9062 28.0078 27.4531C28.5547 26.9844 29.0078 26.5625 29.3672 26.1875C29.7266 25.7969 29.9766 25.5 30.1172 25.2969C30.4141 24.8906 30.625 24.6328 30.75 24.5234C30.875 24.3984 30.9844 24.3359 31.0781 24.3359C31.1562 24.3359 31.2266 24.3438 31.2891 24.3594C31.3672 24.375 31.4453 24.3828 31.5234 24.3828C31.6641 24.3828 31.75 24.3125 31.7812 24.1719C31.8125 24.0312 31.8516 23.9609 31.8984 23.9609C31.9297 23.9609 31.9531 24.0234 31.9688 24.1484C31.9844 24.2734 31.9922 24.4219 31.9922 24.5938C31.9922 24.6875 31.9844 24.7812 31.9688 24.875C31.9531 24.9531 31.9453 25.0312 31.9453 25.1094C31.9297 25.2031 31.8594 25.5234 31.7344 26.0703C31.625 26.6016 31.4062 27.2422 31.0781 27.9922C30.7656 28.7266 30.3203 29.5156 29.7422 30.3594C29.1641 31.2031 28.4141 31.9844 27.4922 32.7031C26.5859 33.4219 25.4766 34.0156 24.1641 34.4844C22.8516 34.9531 21.3047 35.1875 19.5234 35.1875C18.4453 35.1875 17.4453 35.0938 16.5234 34.9062C15.6172 34.7031 14.7969 34.4609 14.0625 34.1797C13.3438 33.8828 12.7031 33.5625 12.1406 33.2188C11.5781 32.8594 11.1094 32.5234 10.7344 32.2109C9.9375 31.7578 9.17188 31.1797 8.4375 30.4766C7.70312 29.7734 7.05469 28.9297 6.49219 27.9453C5.92969 26.9609 5.47656 25.8203 5.13281 24.5234C4.80469 23.2109 4.64062 21.7266 4.64062 20.0703C4.64062 18.4141 4.85938 16.8203 5.29688 15.2891C5.73438 13.7578 6.34375 12.3281 7.125 11C7.92188 9.67188 8.86719 8.46875 9.96094 7.39062C11.0547 6.3125 12.2578 5.39062 13.5703 4.625C14.8828 3.85937 16.2812 3.26562 17.7656 2.84375C19.2656 2.42188 20.8047 2.21094 22.3828 2.21094ZM41.7891 33.5234C41.8047 33.7422 41.7422 33.9609 41.6016 34.1797C41.4766 34.3828 41.3203 34.5703 41.1328 34.7422C40.9609 34.9141 40.7812 35.0469 40.5938 35.1406C40.4219 35.25 40.2891 35.3125 40.1953 35.3281C39.9766 35.3594 39.7344 35.3359 39.4688 35.2578C39.2031 35.1797 39 35.0781 38.8594 34.9531C38.75 34.8594 38.6719 34.75 38.625 34.625C38.5938 34.4844 38.5547 34.2891 38.5078 34.0391C38.4297 33.6797 38.3516 33.3906 38.2734 33.1719C38.2109 32.9375 38.1562 32.7422 38.1094 32.5859C38.0625 32.4141 38.0156 32.2578 37.9688 32.1172C37.9375 31.9766 37.9141 31.8047 37.8984 31.6016C37.7266 29.6953 37.625 27.7969 37.5938 25.9062C37.5625 24 37.5781 22.1719 37.6406 20.4219C37.7031 18.6719 37.7969 17.0469 37.9219 15.5469C38.0625 14.0312 38.1953 12.7188 38.3203 11.6094C38.4609 10.4844 38.5859 9.59375 38.6953 8.9375C38.8047 8.28125 38.875 7.92969 38.9062 7.88281C38.9531 7.75781 39.0859 7.64062 39.3047 7.53125C39.5391 7.42188 39.8047 7.34375 40.1016 7.29688C40.3203 7.26562 40.4844 7.23438 40.5938 7.20312C40.7031 7.17188 40.7969 7.14062 40.875 7.10938C40.9531 7.0625 41.0391 7.02344 41.1328 6.99219C41.2422 6.94531 41.4062 6.89062 41.625 6.82812C41.8125 6.78125 41.9219 6.875 41.9531 7.10938C41.9844 7.34375 41.9766 7.77344 41.9297 8.39844C41.8828 9.02344 41.8125 9.875 41.7188 10.9531C41.6406 12.0312 41.5781 13.3906 41.5312 15.0312C41.7031 15.0625 41.8906 15.0781 42.0938 15.0781C42.3125 15.0781 42.5469 15.0781 42.7969 15.0781C43.625 15.0781 44.5859 14.9922 45.6797 14.8203C46.7734 14.6484 47.8672 14.3438 48.9609 13.9062C50.0703 13.4531 51.1172 12.8438 52.1016 12.0781C53.0859 11.2969 53.8828 10.3125 54.4922 9.125C54.5859 8.89062 54.6328 8.61719 54.6328 8.30469C54.6328 7.86719 54.4844 7.4375 54.1875 7.01562C53.9062 6.57812 53.4531 6.19531 52.8281 5.86719C52.2031 5.52344 51.3906 5.25 50.3906 5.04688C49.3906 4.82813 48.1875 4.71875 46.7812 4.71875C45.9531 4.71875 45.0938 4.78125 44.2031 4.90625C43.3125 5.03125 42.4062 5.23438 41.4844 5.51562C40.5625 5.79688 39.6328 6.16406 38.6953 6.61719C37.7578 7.07031 36.8359 7.63281 35.9297 8.30469C35.8828 8.35156 35.7969 8.39062 35.6719 8.42188C35.5469 8.4375 35.4219 8.44531 35.2969 8.44531C35.0625 8.44531 34.8359 8.35938 34.6172 8.1875C34.3984 8.01562 34.2891 7.83594 34.2891 7.64844C34.2891 7.55469 34.3203 7.47656 34.3828 7.41406C34.4453 7.33594 34.5156 7.26562 34.5938 7.20312C34.6875 7.14062 34.7656 7.08594 34.8281 7.03906C34.8906 6.99219 34.9219 6.95312 34.9219 6.92188C34.9219 6.875 34.8906 6.8125 34.8281 6.73438C34.7656 6.65625 34.7344 6.55469 34.7344 6.42969C34.7344 6.41406 34.6953 6.39844 34.6172 6.38281C34.5391 6.36719 34.4453 6.34375 34.3359 6.3125C34.2422 6.28125 34.1562 6.23438 34.0781 6.17188C34 6.09375 33.9609 5.99219 33.9609 5.86719C33.9609 5.77344 34.0078 5.69531 34.1016 5.63281C34.2109 5.57031 34.3359 5.48438 34.4766 5.375C34.6641 5.26562 34.9922 5.05469 35.4609 4.74219C35.9297 4.42969 36.4922 4.07813 37.1484 3.6875C37.8203 3.29687 38.5625 2.89062 39.375 2.46875C40.1875 2.04688 41.0391 1.66406 41.9297 1.32031C42.8359 0.960938 43.7578 0.671875 44.6953 0.453125C45.6328 0.21875 46.5469 0.101562 47.4375 0.101562C48.3438 0.101562 49.2109 0.257813 50.0391 0.570312C50.8672 0.882812 51.6406 1.29688 52.3594 1.8125C53.0781 2.32812 53.7266 2.92969 54.3047 3.61719C54.8828 4.28906 55.375 5 55.7812 5.75C56.2031 6.48438 56.5234 7.23438 56.7422 8C56.9766 8.75 57.0938 9.46094 57.0938 10.1328C57.0938 10.9141 56.8359 11.6641 56.3203 12.3828C55.8203 13.1016 55.1719 13.7734 54.375 14.3984C53.5938 15.0234 52.7344 15.5938 51.7969 16.1094C50.8594 16.6094 49.9688 17.0469 49.125 17.4219C48.3281 17.7656 47.5078 18.0156 46.6641 18.1719C45.8359 18.3125 45.0703 18.3984 44.3672 18.4297C45.1484 18.7266 45.9688 19.1328 46.8281 19.6484C47.7031 20.1641 48.5625 20.8828 49.4062 21.8047C49.8281 22.2734 50.2422 22.9062 50.6484 23.7031C51.0547 24.4844 51.4609 25.3516 51.8672 26.3047C52.2734 27.2578 52.6797 28.2656 53.0859 29.3281C53.5078 30.3906 53.9453 31.4453 54.3984 32.4922C54.8672 33.5234 55.3594 34.5078 55.875 35.4453C56.4062 36.3984 56.9688 37.2344 57.5625 37.9531C58.1719 38.6719 58.8203 39.2422 59.5078 39.6641C60.2109 40.1016 60.9766 40.3203 61.8047 40.3203C62.5547 40.3203 63.3672 40.125 64.2422 39.7344C65.1328 39.3594 66.0938 38.7109 67.125 37.7891C67.5156 37.4766 67.7656 37.2266 67.875 37.0391C68 36.8672 68.0859 36.7812 68.1328 36.7812C68.1797 36.7812 68.2109 36.8125 68.2266 36.875C68.2578 36.9375 68.2734 37 68.2734 37.0625C68.2891 37.1406 68.2969 37.2109 68.2969 37.2734C68.2969 37.3359 68.3047 37.375 68.3203 37.3906V37.4375C68.3203 37.5156 68.2891 37.5859 68.2266 37.6484C68.2734 37.6484 68.3047 37.6719 68.3203 37.7188C68.3516 37.7812 68.3672 37.8516 68.3672 37.9297C68.3672 38.0547 68.3359 38.1797 68.2734 38.3047C68.1641 38.4609 68.0312 38.7344 67.875 39.125C67.7188 39.5312 67.5078 39.9844 67.2422 40.4844C66.9922 40.9844 66.6797 41.5 66.3047 42.0312C65.9297 42.5781 65.4688 43.0781 64.9219 43.5312C64.3906 43.9844 63.75 44.3516 63 44.6328C62.25 44.9297 61.3828 45.0781 60.3984 45.0781C59.8047 45.0781 59.1875 45 58.5469 44.8438C57.9219 44.6875 57.2891 44.4141 56.6484 44.0234C56.0234 43.6484 55.3984 43.1484 54.7734 42.5234C54.1484 41.8984 53.5469 41.1172 52.9688 40.1797C52.6719 39.7266 52.3594 39.0156 52.0312 38.0469C51.7188 37.0781 51.3828 35.9844 51.0234 34.7656C50.6797 33.5312 50.3125 32.2344 49.9219 30.875C49.5312 29.5156 49.1094 28.2109 48.6562 26.9609C48.2031 25.7109 47.7109 24.5859 47.1797 23.5859C46.6641 22.5703 46.1094 21.7969 45.5156 21.2656C45.1875 20.9844 44.8516 20.7109 44.5078 20.4453C44.1641 20.1797 43.8203 19.9531 43.4766 19.7656C43.1484 19.5625 42.8203 19.4062 42.4922 19.2969C42.1641 19.1719 41.8594 19.1094 41.5781 19.1094H41.4844C41.4844 19.9531 41.4844 20.8516 41.4844 21.8047C41.5 22.7578 41.5078 23.7188 41.5078 24.6875C41.5234 25.6406 41.5391 26.5781 41.5547 27.5C41.5703 28.4219 41.5859 29.2812 41.6016 30.0781C41.6328 30.8594 41.6641 31.5547 41.6953 32.1641C41.7266 32.7578 41.7578 33.2109 41.7891 33.5234ZM95.1797 34.1328C95.1484 34.2578 95.1328 34.3828 95.1328 34.5078C95.1484 34.6172 95.1406 34.6953 95.1094 34.7422C95.0938 34.7891 95.0391 34.7812 94.9453 34.7188C94.8516 34.6406 94.6875 34.4766 94.4531 34.2266L93.8438 34.0391L93.5859 34.2969C93.5391 34.3438 93.4922 34.3828 93.4453 34.4141C93.3203 34.5234 93.2031 34.5391 93.0938 34.4609C93 34.3672 92.875 34.2578 92.7188 34.1328C92.5938 34.0234 92.5 33.9531 92.4375 33.9219C92.3906 33.8906 92.3594 33.8906 92.3438 33.9219C92.3438 33.9375 92.3438 33.9922 92.3438 34.0859C92.3594 34.1641 92.3594 34.2578 92.3438 34.3672C92.3438 34.4141 92.3047 34.5 92.2266 34.625C92.1484 34.7344 92.1094 34.8125 92.1094 34.8594C92.0781 35 92.0312 35.0469 91.9688 35C91.9062 34.9531 91.8438 34.9375 91.7812 34.9531C91.75 34.9531 91.7031 34.9375 91.6406 34.9062C91.5938 34.875 91.5312 34.8281 91.4531 34.7656C91.3906 34.7031 91.3203 34.6016 91.2422 34.4609C91.1797 34.3047 91.125 34.1797 91.0781 34.0859C91.0312 33.9766 90.9844 33.8672 90.9375 33.7578C90.8906 33.6484 90.8359 33.5156 90.7734 33.3594C90.7266 33.2031 90.6719 33 90.6094 32.75C90.5625 32.5 90.5 32.0391 90.4219 31.3672C90.3438 30.6953 90.2578 29.8906 90.1641 28.9531C90.0703 28 89.9609 26.9375 89.8359 25.7656C89.7266 24.5938 89.6094 23.3672 89.4844 22.0859C89.375 20.8047 89.2578 19.5078 89.1328 18.1953C89.0078 16.8672 88.8906 15.5859 88.7812 14.3516C88.6719 13.1016 88.5703 11.9219 88.4766 10.8125C88.3828 9.70312 88.2969 8.72656 88.2188 7.88281L78.6094 31.8359C78.4219 32.2891 78.2031 32.7031 77.9531 33.0781C77.7031 33.4375 77.4453 33.7344 77.1797 33.9688C76.9297 34.1875 76.6797 34.3359 76.4297 34.4141C76.1953 34.4922 76 34.4766 75.8438 34.3672C75.6094 34.2109 75.4141 34.0234 75.2578 33.8047C75.1172 33.5703 74.9922 33.3281 74.8828 33.0781C74.7891 32.8125 74.7031 32.5391 74.625 32.2578C74.5469 31.9766 74.4531 31.6875 74.3438 31.3906C74.1875 30.9375 73.9844 30.2109 73.7344 29.2109C73.5 28.2109 73.2266 27.0469 72.9141 25.7188C72.6016 24.375 72.2734 22.9141 71.9297 21.3359C71.5859 19.7422 71.2344 18.1328 70.875 16.5078C70.5156 14.8672 70.1641 13.2656 69.8203 11.7031C69.4922 10.125 69.1797 8.67188 68.8828 7.34375C68.8047 7.89062 68.6797 8.6875 68.5078 9.73438C68.3359 10.7656 68.1328 11.9531 67.8984 13.2969C67.6797 14.625 67.4375 16.0547 67.1719 17.5859C66.9062 19.1172 66.6406 20.6484 66.375 22.1797C66.125 23.7109 65.875 25.1953 65.625 26.6328C65.3906 28.0703 65.1719 29.3672 64.9688 30.5234C64.7812 31.6797 64.6172 32.6406 64.4766 33.4062C64.3516 34.1562 64.2812 34.625 64.2656 34.8125C64.2656 34.9531 64.2344 35.1016 64.1719 35.2578C64.125 35.3828 64.0547 35.5156 63.9609 35.6562C63.8828 35.8125 63.7734 35.9609 63.6328 36.1016C63.5078 36.1484 63.3828 36.1953 63.2578 36.2422C63.1328 36.2891 63.0234 36.2891 62.9297 36.2422C62.8203 36.1953 62.7578 36.1094 62.7422 35.9844C62.7266 35.875 62.6406 35.7734 62.4844 35.6797C62.3906 35.6016 62.2891 35.5391 62.1797 35.4922C62.0703 35.4609 61.9688 35.3594 61.875 35.1875C61.875 35.0781 61.8594 34.9922 61.8281 34.9297C61.8125 34.8984 61.7969 34.875 61.7812 34.8594C61.7656 34.8438 61.7422 34.8125 61.7109 34.7656C61.6797 34.7188 61.5859 34.6172 61.4297 34.4609C61.3359 34.2734 61.2656 34.0703 61.2188 33.8516C61.1875 33.6172 61.2109 33.3281 61.2891 32.9844C61.3203 32.875 61.3828 32.5938 61.4766 32.1406C61.5703 31.6719 61.6797 31.1094 61.8047 30.4531C61.9453 29.7812 62.0938 29.0469 62.25 28.25C62.4062 27.4375 62.5625 26.6172 62.7188 25.7891C62.875 24.9609 63.0156 24.1641 63.1406 23.3984C63.2812 22.6328 63.3984 21.9531 63.4922 21.3594C63.5859 20.8438 63.7344 20.1172 63.9375 19.1797C64.1562 18.2266 64.4062 17.1719 64.6875 16.0156C64.9688 14.8594 65.2656 13.6484 65.5781 12.3828C65.9062 11.1172 66.2188 9.89844 66.5156 8.72656C66.8125 7.53906 67.0781 6.45312 67.3125 5.46875C67.5625 4.46875 67.75 3.67187 67.875 3.07812C67.8438 3 67.8203 2.92187 67.8047 2.84375C67.7891 2.76563 67.7812 2.6875 67.7812 2.60938C67.7188 2.45312 67.7266 2.36719 67.8047 2.35156C67.8984 2.33594 67.9688 2.30469 68.0156 2.25781C68.0156 2.22656 68.0234 2.20313 68.0391 2.1875C68.0547 2.17187 68.0625 2.14844 68.0625 2.11719C68.0625 2.02344 68.0781 1.97656 68.1094 1.97656C68.1094 1.77344 68.1406 1.64063 68.2031 1.57812C68.2656 1.51562 68.3281 1.47656 68.3906 1.46094C68.4688 1.44531 68.5391 1.4375 68.6016 1.4375C68.6641 1.4375 68.7031 1.39062 68.7188 1.29688C68.75 1.09375 68.7812 0.960938 68.8125 0.898438C68.8594 0.820313 68.9062 0.789062 68.9531 0.804688C69.0156 0.804688 69.0938 0.835937 69.1875 0.898438C69.2812 0.945312 69.3984 1 69.5391 1.0625C69.6172 1.09375 69.6797 1.10938 69.7266 1.10938C69.7891 1.09375 69.8516 1.09375 69.9141 1.10938C69.9766 1.10938 70.0469 1.125 70.125 1.15625C70.2188 1.1875 70.3281 1.25 70.4531 1.34375C70.5469 1.42187 70.625 1.46094 70.6875 1.46094C70.7656 1.46094 70.8281 1.4375 70.875 1.39062C70.9375 1.34375 70.9844 1.28906 71.0156 1.22656C71.0625 1.16406 71.1016 1.10938 71.1328 1.0625C71.1797 0.984375 71.25 0.945312 71.3438 0.945312C71.4375 0.945312 71.5234 0.984375 71.6016 1.0625C71.6953 1.1875 71.7656 1.27344 71.8125 1.32031C71.875 1.36719 71.9141 1.40625 71.9297 1.4375C71.9609 1.45313 71.9766 1.46875 71.9766 1.48438C71.9766 1.48438 71.9844 1.50781 72 1.55469C72.2344 2.25781 72.4375 2.99219 72.6094 3.75781C72.7969 4.52344 72.9844 5.39844 73.1719 6.38281C73.375 7.36719 73.6094 8.50781 73.875 9.80469C74.1406 11.0859 74.4766 12.6016 74.8828 14.3516C75.5547 17.3203 76.1406 19.8203 76.6406 21.8516C77.1406 23.8672 77.5625 25.3828 77.9062 26.3984C78.2188 25.6797 78.5938 24.8047 79.0312 23.7734C79.4844 22.7422 79.9609 21.625 80.4609 20.4219C80.9609 19.2031 81.4844 17.9453 82.0312 16.6484C82.5781 15.3359 83.1172 14.0391 83.6484 12.7578C84.1797 11.4766 84.6875 10.25 85.1719 9.07812C85.6719 7.90625 86.1094 6.85156 86.4844 5.91406C86.875 4.97656 87.2031 4.1875 87.4688 3.54688C87.7344 2.90625 87.9062 2.49219 87.9844 2.30469C88.0781 2.08594 88.1484 1.90625 88.1953 1.76562C88.2578 1.625 88.3281 1.51562 88.4062 1.4375C88.4531 1.3125 88.5156 1.22656 88.5938 1.17969C88.6875 1.11719 88.7891 1.10938 88.8984 1.15625C88.9297 1.1875 88.9688 1.21094 89.0156 1.22656C89.0469 1.25781 89.0781 1.28125 89.1094 1.29688C89.1562 1.29688 89.1953 1.3125 89.2266 1.34375C89.2422 1.26563 89.2734 1.22656 89.3203 1.22656C89.3672 1.21094 89.4219 1.20312 89.4844 1.20312C89.5469 1.21875 89.6172 1.23437 89.6953 1.25H89.7656H89.8594C89.9062 1.21875 89.9531 1.19531 90 1.17969C90.0469 1.14844 90.0938 1.15625 90.1406 1.20312C90.2812 1.28125 90.375 1.28906 90.4219 1.22656C90.4844 1.14844 90.5781 1.10938 90.7031 1.10938C90.7812 1.10938 90.8516 1.10156 90.9141 1.08594C90.9609 1.07031 91.0078 1.05469 91.0547 1.03906C91.1016 1.00781 91.1328 0.96875 91.1484 0.921875C91.2109 0.921875 91.2578 0.929687 91.2891 0.945312C91.3359 0.960938 91.375 0.976562 91.4062 0.992188L91.4766 1.0625C91.5234 1.125 91.5938 1.39844 91.6875 1.88281C91.7812 2.35156 91.8828 2.9375 91.9922 3.64062C92.1172 4.32812 92.2344 5.07812 92.3438 5.89062C92.4688 6.70312 92.5781 7.47656 92.6719 8.21094C92.7031 8.46094 92.7656 9.01562 92.8594 9.875C92.9531 10.7188 93.0625 11.7578 93.1875 12.9922C93.3125 14.2109 93.4531 15.5703 93.6094 17.0703C93.7656 18.5703 93.9219 20.0859 94.0781 21.6172C94.2344 23.1484 94.3828 24.6484 94.5234 26.1172C94.6641 27.5703 94.7812 28.875 94.875 30.0312C94.9844 31.1875 95.0625 32.1406 95.1094 32.8906C95.1719 33.625 95.1953 34.0391 95.1797 34.1328ZM125.93 2.21094C126.492 2.21094 127.117 2.25781 127.805 2.35156C128.508 2.44531 129.195 2.60156 129.867 2.82031C130.555 3.03906 131.188 3.32813 131.766 3.6875C132.344 4.03125 132.789 4.46875 133.102 5C133.492 5.28125 133.844 5.69531 134.156 6.24219C134.438 6.83594 134.578 7.39844 134.578 7.92969C134.578 8.52344 134.469 9.07031 134.25 9.57031C134.047 10.0703 133.781 10.5234 133.453 10.9297C133.125 11.3359 132.766 11.6953 132.375 12.0078C132 12.3203 131.633 12.5859 131.273 12.8047C130.914 13.0078 130.602 13.1641 130.336 13.2734C130.07 13.3828 129.898 13.4375 129.82 13.4375C129.742 13.4375 129.609 13.3984 129.422 13.3203C129.25 13.2422 129.078 13.1484 128.906 13.0391C128.703 12.9297 128.484 12.7969 128.25 12.6406C128.25 12.625 128.398 12.5312 128.695 12.3594C128.992 12.1875 129.32 11.9219 129.68 11.5625C130.055 11.2031 130.391 10.7344 130.688 10.1562C130.984 9.5625 131.133 8.83594 131.133 7.97656C130.992 7.69531 130.797 7.42969 130.547 7.17969C130.297 6.91406 129.977 6.6875 129.586 6.5C129.195 6.29688 128.719 6.13281 128.156 6.00781C127.609 5.88281 126.953 5.82031 126.188 5.82031C125.922 5.82031 125.516 5.85938 124.969 5.9375C124.422 6.01562 123.789 6.15625 123.07 6.35938C122.352 6.5625 121.57 6.84375 120.727 7.20312C119.898 7.54688 119.062 8.00781 118.219 8.58594C117.391 9.14844 116.586 9.83594 115.805 10.6484C115.039 11.4453 114.359 12.3906 113.766 13.4844C113.172 14.5625 112.695 15.8047 112.336 17.2109C111.992 18.6172 111.82 20.2109 111.82 21.9922C111.82 22.9609 111.898 23.8438 112.055 24.6406C112.211 25.4219 112.414 26.1328 112.664 26.7734C112.93 27.3984 113.234 27.9609 113.578 28.4609C113.922 28.9453 114.281 29.3828 114.656 29.7734C114.891 29.8984 115.156 30.0625 115.453 30.2656C115.75 30.4531 116.148 30.6406 116.648 30.8281C117.164 31 117.82 31.1562 118.617 31.2969C119.414 31.4219 120.43 31.4844 121.664 31.4844C122.727 31.4844 123.734 31.3594 124.688 31.1094C125.656 30.8594 126.555 30.5391 127.383 30.1484C128.227 29.7578 129 29.3281 129.703 28.8594C130.406 28.375 131.023 27.9062 131.555 27.4531C132.102 26.9844 132.555 26.5625 132.914 26.1875C133.273 25.7969 133.523 25.5 133.664 25.2969C133.961 24.8906 134.172 24.6328 134.297 24.5234C134.422 24.3984 134.531 24.3359 134.625 24.3359C134.703 24.3359 134.773 24.3438 134.836 24.3594C134.914 24.375 134.992 24.3828 135.07 24.3828C135.211 24.3828 135.297 24.3125 135.328 24.1719C135.359 24.0312 135.398 23.9609 135.445 23.9609C135.477 23.9609 135.5 24.0234 135.516 24.1484C135.531 24.2734 135.539 24.4219 135.539 24.5938C135.539 24.6875 135.531 24.7812 135.516 24.875C135.5 24.9531 135.492 25.0312 135.492 25.1094C135.477 25.2031 135.406 25.5234 135.281 26.0703C135.172 26.6016 134.953 27.2422 134.625 27.9922C134.312 28.7266 133.867 29.5156 133.289 30.3594C132.711 31.2031 131.961 31.9844 131.039 32.7031C130.133 33.4219 129.023 34.0156 127.711 34.4844C126.398 34.9531 124.852 35.1875 123.07 35.1875C121.992 35.1875 120.992 35.0938 120.07 34.9062C119.164 34.7031 118.344 34.4609 117.609 34.1797C116.891 33.8828 116.25 33.5625 115.688 33.2188C115.125 32.8594 114.656 32.5234 114.281 32.2109C113.484 31.7578 112.719 31.1797 111.984 30.4766C111.25 29.7734 110.602 28.9297 110.039 27.9453C109.477 26.9609 109.023 25.8203 108.68 24.5234C108.352 23.2109 108.188 21.7266 108.188 20.0703C108.188 18.4141 108.406 16.8203 108.844 15.2891C109.281 13.7578 109.891 12.3281 110.672 11C111.469 9.67188 112.414 8.46875 113.508 7.39062C114.602 6.3125 115.805 5.39062 117.117 4.625C118.43 3.85937 119.828 3.26562 121.312 2.84375C122.812 2.42188 124.352 2.21094 125.93 2.21094ZM152.438 21.2656C152.453 21.8125 152.406 22.4844 152.297 23.2812C152.188 24.0625 152.062 24.9062 151.922 25.8125C151.781 26.7031 151.648 27.6172 151.523 28.5547C151.398 29.4922 151.336 30.375 151.336 31.2031C151.336 31.75 151.375 32.2734 151.453 32.7734C151.531 33.2578 151.664 33.6797 151.852 34.0391C151.961 34.2422 152.016 34.4219 152.016 34.5781C152.031 34.7344 152.023 34.875 151.992 35C151.961 35.1094 151.93 35.2031 151.898 35.2812C151.867 35.375 151.867 35.4609 151.898 35.5391C151.93 35.6172 151.922 35.7031 151.875 35.7969C151.828 35.9062 151.758 36 151.664 36.0781C151.57 36.1719 151.461 36.2344 151.336 36.2656C151.227 36.3125 151.125 36.3047 151.031 36.2422C150.859 36.1328 150.719 36.0703 150.609 36.0547C150.516 36.0391 150.43 36.0391 150.352 36.0547C150.289 36.0859 150.227 36.1172 150.164 36.1484C150.117 36.1797 150.055 36.1797 149.977 36.1484C149.711 36.0078 149.422 35.8438 149.109 35.6562C148.797 35.4688 148.594 35.2656 148.5 35.0469C148.438 34.9531 148.375 34.7969 148.312 34.5781C148.266 34.3594 148.219 34.1016 148.172 33.8047C148.141 33.5078 148.109 33.1875 148.078 32.8438C148.047 32.5 148.023 32.1641 148.008 31.8359C147.492 32.8047 146.938 33.6094 146.344 34.25C145.766 34.8906 145.18 35.3984 144.586 35.7734C144.008 36.1641 143.43 36.4375 142.852 36.5938C142.289 36.75 141.773 36.8281 141.305 36.8281C140.82 36.8281 140.391 36.7656 140.016 36.6406C139.656 36.5156 139.375 36.3672 139.172 36.1953C138.406 35.4297 137.859 34.8125 137.531 34.3438C137.219 33.8594 137.078 33.4688 137.109 33.1719C137.188 32.1719 137.43 31.25 137.836 30.4062C138.242 29.5625 138.75 28.7891 139.359 28.0859C139.969 27.3672 140.648 26.7266 141.398 26.1641C142.164 25.5859 142.938 25.0781 143.719 24.6406C144.516 24.1875 145.297 23.8125 146.062 23.5156C146.828 23.2031 147.523 22.9531 148.148 22.7656C148.117 21.9219 148.078 21.1875 148.031 20.5625C148 19.9219 147.945 19.4531 147.867 19.1562C147.633 18.1875 147.273 17.4688 146.789 17C146.305 16.5156 145.719 16.2734 145.031 16.2734C144.594 16.2734 144.148 16.4375 143.695 16.7656C143.258 17.0938 142.859 17.5391 142.5 18.1016C142.141 18.6641 141.844 19.3125 141.609 20.0469C141.391 20.7812 141.273 21.5547 141.258 22.3672C141.258 22.5703 141.266 22.7656 141.281 22.9531C141.297 23.1406 141.32 23.3359 141.352 23.5391C141.367 23.6484 141.328 23.7266 141.234 23.7734C141.156 23.8203 141.055 23.8594 140.93 23.8906C140.805 23.9062 140.672 23.9219 140.531 23.9375C140.391 23.9531 140.273 23.9766 140.18 24.0078C140.102 24.0391 140.039 24.0625 139.992 24.0781C139.945 24.0781 139.898 24.0703 139.852 24.0547C139.805 24.0234 139.742 23.9766 139.664 23.9141C139.602 23.8516 139.508 23.7734 139.383 23.6797C139.258 23.5859 139.125 23.5078 138.984 23.4453C138.859 23.3828 138.742 23.3281 138.633 23.2812C138.539 23.2344 138.453 23.1953 138.375 23.1641C138.312 23.1172 138.281 23.0625 138.281 23C138.281 22.0312 138.492 21.0312 138.914 20C139.352 18.9688 139.93 18.0312 140.648 17.1875C141.383 16.3281 142.227 15.625 143.18 15.0781C144.148 14.5312 145.172 14.2578 146.25 14.2578C147.125 14.2578 147.883 14.3906 148.523 14.6562C149.164 14.9219 149.711 15.2656 150.164 15.6875C150.617 16.1094 150.984 16.5781 151.266 17.0938C151.562 17.6094 151.789 18.1328 151.945 18.6641C152.117 19.1797 152.234 19.6719 152.297 20.1406C152.375 20.5938 152.422 20.9688 152.438 21.2656ZM148.195 25.4375C147.727 25.6094 147.211 25.8359 146.648 26.1172C146.086 26.3984 145.516 26.7344 144.938 27.125C144.359 27.5 143.781 27.9375 143.203 28.4375C142.625 28.9375 142.086 29.4922 141.586 30.1016C140.992 30.8047 140.562 31.4297 140.297 31.9766C140.031 32.5234 139.867 32.9922 139.805 33.3828C139.742 33.7578 139.758 34.0547 139.852 34.2734C139.945 34.4922 140.055 34.625 140.18 34.6719C140.664 34.8594 141.164 34.8828 141.68 34.7422C142.211 34.5859 142.734 34.3203 143.25 33.9453C143.781 33.5547 144.289 33.0938 144.773 32.5625C145.273 32.0156 145.742 31.4609 146.18 30.8984C146.617 30.3203 147.008 29.7578 147.352 29.2109C147.695 28.6484 147.977 28.1641 148.195 27.7578V25.4375ZM168.516 19.7422C168.234 19.7422 167.836 19.7656 167.32 19.8125C166.805 19.8594 166.227 19.9219 165.586 20C164.961 20.0625 164.305 20.1484 163.617 20.2578C162.945 20.3516 162.305 20.4531 161.695 20.5625C161.664 21.4062 161.633 22.2969 161.602 23.2344C161.586 24.1719 161.562 25.1172 161.531 26.0703C161.516 27.0234 161.492 27.9531 161.461 28.8594C161.445 29.75 161.43 30.5781 161.414 31.3438C161.398 32.1094 161.391 32.7812 161.391 33.3594C161.391 33.9219 161.398 34.3438 161.414 34.625C161.445 35.3125 161.43 35.7812 161.367 36.0312C161.305 36.2812 161.219 36.4219 161.109 36.4531C161 36.5 160.883 36.4766 160.758 36.3828C160.633 36.2891 160.531 36.2266 160.453 36.1953C160.375 36.1797 160.312 36.2188 160.266 36.3125C160.234 36.4062 160.203 36.5078 160.172 36.6172C160.141 36.7422 160.102 36.8516 160.055 36.9453C160.008 37.0547 159.93 37.0938 159.82 37.0625C159.633 37.0156 159.398 36.875 159.117 36.6406C158.836 36.4219 158.609 36.1484 158.438 35.8203C158.344 35.6484 158.273 35.4531 158.227 35.2344C158.18 35.0312 158.117 34.8125 158.039 34.5781C158.008 34.4219 157.977 34.1953 157.945 33.8984C157.93 33.6016 157.914 33.25 157.898 32.8438C157.883 32.4375 157.867 31.9844 157.852 31.4844C157.852 30.9844 157.852 30.4609 157.852 29.9141C157.852 29.1797 157.852 28.4219 157.852 27.6406C157.867 26.8594 157.883 26.0938 157.898 25.3438C157.914 24.5781 157.93 23.8516 157.945 23.1641C157.961 22.4766 157.977 21.8594 157.992 21.3125C157.68 21.3906 157.305 21.4922 156.867 21.6172C156.445 21.7266 155.945 21.8672 155.367 22.0391C155.148 22.1172 154.992 22.1016 154.898 21.9922C154.805 21.8828 154.828 21.6719 154.969 21.3594C155.016 21.2812 155.008 21.2188 154.945 21.1719C154.883 21.125 154.805 21.0859 154.711 21.0547C154.633 21.0078 154.555 20.9609 154.477 20.9141C154.398 20.8672 154.359 20.7969 154.359 20.7031C154.359 20.6094 154.375 20.5 154.406 20.375C154.422 20.25 154.469 20.1641 154.547 20.1172C154.719 20.0234 155.07 19.8281 155.602 19.5312C156.133 19.2188 156.914 18.9062 157.945 18.5938C157.93 16.75 158.039 15.1094 158.273 13.6719C158.508 12.2344 158.82 10.9766 159.211 9.89844C159.617 8.80469 160.086 7.875 160.617 7.10938C161.164 6.34375 161.727 5.71094 162.305 5.21094C162.898 4.71094 163.492 4.32812 164.086 4.0625C164.695 3.79688 165.273 3.61719 165.82 3.52344C166.57 3.38281 167.234 3.45312 167.812 3.73438C168.406 4.01562 168.898 4.41406 169.289 4.92969C169.68 5.42969 169.977 6 170.18 6.64062C170.383 7.26562 170.484 7.86719 170.484 8.44531C170.484 9.14844 170.445 9.77344 170.367 10.3203C170.289 10.8516 170.195 11.3125 170.086 11.7031C169.992 12.0781 169.883 12.3906 169.758 12.6406C169.648 12.875 169.555 13.0469 169.477 13.1562C169.336 13.4219 169.195 13.6328 169.055 13.7891C168.93 13.9453 168.828 13.9766 168.75 13.8828C168.656 13.8047 168.555 13.75 168.445 13.7188C168.336 13.6719 168.227 13.625 168.117 13.5781C168.023 13.5312 167.945 13.4766 167.883 13.4141C167.82 13.3516 167.789 13.25 167.789 13.1094C167.789 13.0469 167.758 13.0078 167.695 12.9922C167.648 12.9766 167.594 12.9609 167.531 12.9453C167.484 12.9141 167.438 12.875 167.391 12.8281C167.344 12.7812 167.336 12.7031 167.367 12.5938C167.555 11.6875 167.648 10.8047 167.648 9.94531C167.648 9.24219 167.578 8.60156 167.438 8.02344C167.312 7.42969 167.117 6.92969 166.852 6.52344C166.602 6.10156 166.281 5.80469 165.891 5.63281C165.516 5.44531 165.078 5.41406 164.578 5.53906C164.234 5.61719 163.898 5.9375 163.57 6.5C163.258 7.0625 162.969 7.85938 162.703 8.89062C162.453 9.92188 162.242 11.1797 162.07 12.6641C161.898 14.1328 161.789 15.8203 161.742 17.7266C163.039 17.4766 164.625 17.2812 166.5 17.1406C166.688 17.125 166.836 17.1406 166.945 17.1875C167.055 17.2188 167.156 17.2734 167.25 17.3516C167.344 17.4297 167.438 17.5312 167.531 17.6562C167.641 17.7812 167.773 17.9297 167.93 18.1016C168.086 18.2734 168.242 18.4609 168.398 18.6641C168.555 18.8516 168.672 19.0312 168.75 19.2031C168.828 19.3594 168.852 19.4922 168.82 19.6016C168.805 19.7109 168.703 19.7578 168.516 19.7422ZM184.805 26.4453C184.805 26.6172 184.812 26.8203 184.828 27.0547C184.844 27.2891 184.852 27.5547 184.852 27.8516C184.852 28.2266 184.797 28.6953 184.688 29.2578C184.578 29.8047 184.398 30.3828 184.148 30.9922C183.914 31.6016 183.594 32.2109 183.188 32.8203C182.781 33.4297 182.281 33.9766 181.688 34.4609C181.094 34.9453 180.391 35.3359 179.578 35.6328C178.781 35.9453 177.867 36.1016 176.836 36.1016C175.914 36.1016 174.969 35.9219 174 35.5625C173.047 35.2188 172.172 34.6797 171.375 33.9453C170.594 33.1953 169.945 32.25 169.43 31.1094C168.93 29.9531 168.68 28.5781 168.68 26.9844C168.68 25.9844 168.805 25 169.055 24.0312C169.32 23.0625 169.664 22.1484 170.086 21.2891C170.523 20.4297 171.031 19.6406 171.609 18.9219C172.203 18.1875 172.82 17.5625 173.461 17.0469C174.117 16.5156 174.789 16.1016 175.477 15.8047C176.18 15.5078 176.859 15.3594 177.516 15.3594C178.656 15.3594 179.594 15.5391 180.328 15.8984C181.078 16.2578 181.672 16.7031 182.109 17.2344C182.547 17.7656 182.852 18.3359 183.023 18.9453C183.211 19.5391 183.305 20.0781 183.305 20.5625C183.305 21.0312 183.188 21.5703 182.953 22.1797C182.734 22.7734 182.367 23.3438 181.852 23.8906C181.336 24.4219 180.664 24.875 179.836 25.25C179.008 25.6094 177.992 25.7891 176.789 25.7891C176.148 25.7891 175.57 25.7031 175.055 25.5312C174.555 25.3438 174.109 25.1172 173.719 24.8516C173.328 24.5703 172.992 24.2734 172.711 23.9609C172.445 23.6328 172.219 23.3281 172.031 23.0469C171.75 24.0156 171.609 25.1484 171.609 26.4453C171.609 27.3359 171.734 28.1406 171.984 28.8594C172.25 29.5625 172.609 30.1641 173.062 30.6641C173.516 31.1641 174.055 31.5469 174.68 31.8125C175.305 32.0781 175.992 32.2109 176.742 32.2109C177.68 32.2109 178.5 32.0547 179.203 31.7422C179.906 31.4141 180.516 31.0078 181.031 30.5234C181.562 30.0391 182.016 29.5156 182.391 28.9531C182.781 28.375 183.117 27.8516 183.398 27.3828C183.68 26.8984 183.922 26.5 184.125 26.1875C184.344 25.875 184.555 25.7266 184.758 25.7422C184.852 25.7422 184.898 25.8203 184.898 25.9766C184.898 26.0547 184.891 26.1328 184.875 26.2109C184.859 26.2891 184.836 26.3672 184.805 26.4453ZM177.75 17.7266C177.469 17.7266 177.102 17.7891 176.648 17.9141C176.211 18.0234 175.742 18.2266 175.242 18.5234C174.758 18.8203 174.273 19.2266 173.789 19.7422C173.305 20.2422 172.883 20.8828 172.523 21.6641C172.742 21.5547 172.93 21.4609 173.086 21.3828C173.258 21.3047 173.375 21.2656 173.438 21.2656C173.469 21.2656 173.516 21.2969 173.578 21.3594C173.938 21.9688 174.383 22.4062 174.914 22.6719C175.461 22.9219 176.07 23.0469 176.742 23.0469C177.273 23.0469 177.727 22.9609 178.102 22.7891C178.492 22.6016 178.812 22.3672 179.062 22.0859C179.312 21.8047 179.492 21.5 179.602 21.1719C179.711 20.8281 179.766 20.4922 179.766 20.1641C179.766 19.4609 179.586 18.8828 179.227 18.4297C178.867 17.9609 178.375 17.7266 177.75 17.7266Z" fill="#B80505"/>
</g>
<defs>
<filter id="filter0_d" x="0.640625" y="0.101562" width="188.258" height="52.9766" filterUnits="userSpaceOnUse" color-interpolation-filters="sRGB">
<feFlood flood-opacity="0" result="BackgroundImageFix"/>
<feColorMatrix in="SourceAlpha" type="matrix" values="0 0 0 0 0 0 0 0 0 0 0 0 0 0 0 0 0 0 127 0"/>
<feOffset dy="4"/>
<feGaussianBlur stdDeviation="2"/>
<feColorMatrix type="matrix" values="0 0 0 0 0 0 0 0 0 0 0 0 0 0 0 0 0 0 0.25 0"/>
<feBlend mode="normal" in2="BackgroundImageFix" result="effect1_dropShadow"/>
<feBlend mode="normal" in="SourceGraphic" in2="effect1_dropShadow" result="shape"/>
</filter>
</defs>
</svg>
